<mxfile host="app.diagrams.net" modified="2020-10-23T08:14:42.470Z" agent="5.0 (X11; Linux x86_64) AppleWebKit/537.36 (KHTML, like Gecko) Chrome/86.0.4240.75 Safari/537.36" etag="zx9cpIRFq3bJKMXqehDW" version="13.8.1" type="github" pages="2">
  <diagram id="-3yE_oQgP8SEoG4yNwQ4" name="Page-1">
    <mxGraphModel dx="1422" dy="745" grid="1" gridSize="10" guides="1" tooltips="1" connect="1" arrows="1" fold="1" page="1" pageScale="1" pageWidth="827" pageHeight="1169" math="0" shadow="0">
      <root>
        <mxCell id="0" />
        <mxCell id="1" parent="0" />
        <mxCell id="7udFH5Te9YRPJ404BhfZ-31" value="" style="rounded=0;whiteSpace=wrap;html=1;" vertex="1" parent="1">
          <mxGeometry x="55" y="40" width="690" height="730" as="geometry" />
        </mxCell>
        <mxCell id="7udFH5Te9YRPJ404BhfZ-5" style="edgeStyle=orthogonalEdgeStyle;rounded=0;orthogonalLoop=1;jettySize=auto;html=1;exitX=0.5;exitY=1;exitDx=0;exitDy=0;entryX=0.5;entryY=0;entryDx=0;entryDy=0;" edge="1" parent="1" source="7udFH5Te9YRPJ404BhfZ-1">
          <mxGeometry relative="1" as="geometry">
            <mxPoint x="400" y="170" as="targetPoint" />
          </mxGeometry>
        </mxCell>
        <mxCell id="7udFH5Te9YRPJ404BhfZ-1" value="&lt;b&gt;&lt;font color=&quot;#009900&quot; style=&quot;font-size: 15px&quot;&gt;START&lt;/font&gt;&lt;/b&gt;" style="ellipse;whiteSpace=wrap;html=1;" vertex="1" parent="1">
          <mxGeometry x="340" y="80" width="120" height="40" as="geometry" />
        </mxCell>
        <mxCell id="7udFH5Te9YRPJ404BhfZ-11" style="edgeStyle=orthogonalEdgeStyle;rounded=0;orthogonalLoop=1;jettySize=auto;html=1;exitX=0.5;exitY=1;exitDx=0;exitDy=0;" edge="1" parent="1" source="7udFH5Te9YRPJ404BhfZ-6" target="7udFH5Te9YRPJ404BhfZ-10">
          <mxGeometry relative="1" as="geometry" />
        </mxCell>
        <mxCell id="7udFH5Te9YRPJ404BhfZ-6" value="&lt;font face=&quot;Times New Roman&quot; style=&quot;font-size: 14px&quot;&gt;&lt;b&gt;&lt;font color=&quot;#0000ff&quot; style=&quot;font-size: 14px&quot;&gt;Message : &quot;ENTER OPTION&quot;&lt;/font&gt;&lt;br&gt;&lt;/b&gt;&lt;br&gt;&lt;font color=&quot;#ff3333&quot; style=&quot;font-size: 14px&quot;&gt;bool&lt;/font&gt; prompt_message(false,message)&lt;/font&gt;" style="shape=step;perimeter=stepPerimeter;whiteSpace=wrap;html=1;fixedSize=1;" vertex="1" parent="1">
          <mxGeometry x="270" y="300" width="260" height="80" as="geometry" />
        </mxCell>
        <mxCell id="7udFH5Te9YRPJ404BhfZ-8" style="edgeStyle=orthogonalEdgeStyle;rounded=0;orthogonalLoop=1;jettySize=auto;html=1;exitX=0.5;exitY=1;exitDx=0;exitDy=0;entryX=0.5;entryY=0;entryDx=0;entryDy=0;" edge="1" parent="1" source="7udFH5Te9YRPJ404BhfZ-7" target="7udFH5Te9YRPJ404BhfZ-6">
          <mxGeometry relative="1" as="geometry" />
        </mxCell>
        <mxCell id="7udFH5Te9YRPJ404BhfZ-7" value="&lt;font face=&quot;Times New Roman&quot; style=&quot;font-size: 14px&quot;&gt;&lt;font color=&quot;#007fff&quot; style=&quot;font-size: 14px&quot;&gt;&lt;b&gt;Display&amp;nbsp;the Main Menu Options&lt;br&gt;&lt;/b&gt;display these specific contents&lt;br&gt;&lt;/font&gt;&lt;font color=&quot;#cc6600&quot; style=&quot;font-size: 14px&quot;&gt;struct&lt;/font&gt;&lt;span&gt;&amp;nbsp;operation_t.ops[char op] &amp;amp;&lt;/span&gt;&lt;br&gt;&lt;font color=&quot;#cc6600&quot; style=&quot;font-size: 14px&quot;&gt;struct&lt;/font&gt;&lt;span&gt;&amp;nbsp;operation_t.ops[op_string]&lt;/span&gt;&lt;/font&gt;" style="rounded=1;whiteSpace=wrap;html=1;" vertex="1" parent="1">
          <mxGeometry x="290" y="170" width="220" height="80" as="geometry" />
        </mxCell>
        <mxCell id="7udFH5Te9YRPJ404BhfZ-13" style="edgeStyle=orthogonalEdgeStyle;rounded=0;orthogonalLoop=1;jettySize=auto;html=1;exitX=1;exitY=0.5;exitDx=0;exitDy=0;" edge="1" parent="1" source="7udFH5Te9YRPJ404BhfZ-9">
          <mxGeometry relative="1" as="geometry">
            <mxPoint x="400" y="280" as="targetPoint" />
            <Array as="points">
              <mxPoint x="590" y="585" />
              <mxPoint x="590" y="280" />
            </Array>
          </mxGeometry>
        </mxCell>
        <mxCell id="7udFH5Te9YRPJ404BhfZ-15" style="edgeStyle=orthogonalEdgeStyle;rounded=0;orthogonalLoop=1;jettySize=auto;html=1;exitX=0.5;exitY=1;exitDx=0;exitDy=0;entryX=0.5;entryY=0;entryDx=0;entryDy=0;" edge="1" parent="1" source="7udFH5Te9YRPJ404BhfZ-9">
          <mxGeometry relative="1" as="geometry">
            <mxPoint x="400" y="660" as="targetPoint" />
          </mxGeometry>
        </mxCell>
        <mxCell id="7udFH5Te9YRPJ404BhfZ-9" value="&lt;font face=&quot;Times New Roman&quot; style=&quot;font-size: 14px&quot;&gt;Is&lt;br&gt;&amp;nbsp;response &lt;font style=&quot;font-size: 14px&quot; color=&quot;#006633&quot;&gt;VALID&lt;/font&gt;?&lt;/font&gt;" style="rhombus;whiteSpace=wrap;html=1;" vertex="1" parent="1">
          <mxGeometry x="335" y="540" width="130" height="90" as="geometry" />
        </mxCell>
        <mxCell id="7udFH5Te9YRPJ404BhfZ-12" style="edgeStyle=orthogonalEdgeStyle;rounded=0;orthogonalLoop=1;jettySize=auto;html=1;exitX=0.5;exitY=1;exitDx=0;exitDy=0;" edge="1" parent="1" source="7udFH5Te9YRPJ404BhfZ-10" target="7udFH5Te9YRPJ404BhfZ-9">
          <mxGeometry relative="1" as="geometry" />
        </mxCell>
        <mxCell id="7udFH5Te9YRPJ404BhfZ-10" value="&lt;font style=&quot;font-size: 14px&quot; face=&quot;Times New Roman&quot;&gt;&lt;font color=&quot;#007fff&quot; style=&quot;font-size: 14px&quot;&gt;Option: get the option from the user&lt;br&gt;&lt;/font&gt;&lt;br&gt;&lt;font color=&quot;#ff3333&quot; style=&quot;font-size: 14px&quot;&gt;getchar&lt;/font&gt;()&lt;/font&gt;" style="shape=step;perimeter=stepPerimeter;whiteSpace=wrap;html=1;fixedSize=1;" vertex="1" parent="1">
          <mxGeometry x="275" y="420" width="250" height="80" as="geometry" />
        </mxCell>
        <mxCell id="7udFH5Te9YRPJ404BhfZ-30" value="&lt;font color=&quot;#007fff&quot; style=&quot;font-family: &amp;#34;times new roman&amp;#34; ; font-size: 14px&quot;&gt;&lt;b&gt;RETURN&lt;/b&gt;&lt;/font&gt;&lt;br style=&quot;font-family: &amp;#34;times new roman&amp;#34; ; font-size: 14px&quot;&gt;&lt;span style=&quot;font-family: &amp;#34;times new roman&amp;#34; ; font-size: 14px&quot;&gt;selection&lt;br&gt;&lt;/span&gt;" style="ellipse;whiteSpace=wrap;html=1;" vertex="1" parent="1">
          <mxGeometry x="305" y="660" width="190" height="80" as="geometry" />
        </mxCell>
        <mxCell id="7udFH5Te9YRPJ404BhfZ-32" value="&lt;font face=&quot;Times New Roman&quot; size=&quot;1&quot;&gt;&lt;b style=&quot;font-size: 18px&quot;&gt;&lt;font color=&quot;#ff3333&quot;&gt;int&lt;/font&gt; get_main_menu_options()&lt;/b&gt;&lt;/font&gt;" style="text;html=1;resizable=0;autosize=1;align=center;verticalAlign=middle;points=[];fillColor=none;strokeColor=none;rounded=0;" vertex="1" parent="1">
          <mxGeometry x="274" y="50" width="240" height="20" as="geometry" />
        </mxCell>
      </root>
    </mxGraphModel>
  </diagram>
  <diagram id="ukSPvFK9bgcK1yAwJUYf" name="Page-2">
    <mxGraphModel dx="1422" dy="745" grid="1" gridSize="10" guides="1" tooltips="1" connect="1" arrows="1" fold="1" page="1" pageScale="1" pageWidth="827" pageHeight="1169" math="0" shadow="0">
      <root>
        <mxCell id="an3bbk0FtISB5r67lATR-0" />
        <mxCell id="an3bbk0FtISB5r67lATR-1" parent="an3bbk0FtISB5r67lATR-0" />
        <mxCell id="0aiHE1fEEMHJb-Q5R10j-0" value="&lt;font style=&quot;font-size: 18px&quot;&gt;&lt;b&gt;&lt;font color=&quot;#cc0000&quot;&gt;bool &lt;/font&gt;check_file()&lt;/b&gt;&lt;/font&gt;" style="text;html=1;resizable=0;autosize=1;align=center;verticalAlign=middle;points=[];fillColor=none;strokeColor=none;rounded=0;" vertex="1" parent="an3bbk0FtISB5r67lATR-1">
          <mxGeometry x="305" y="20" width="160" height="20" as="geometry" />
        </mxCell>
        <mxCell id="nLPLu2BwpXYCpV-2YTjY-0" value="&lt;b&gt;&lt;font color=&quot;#009900&quot; style=&quot;font-size: 15px&quot;&gt;START&lt;/font&gt;&lt;/b&gt;" style="ellipse;whiteSpace=wrap;html=1;" vertex="1" parent="an3bbk0FtISB5r67lATR-1">
          <mxGeometry x="320" y="80" width="120" height="40" as="geometry" />
        </mxCell>
      </root>
    </mxGraphModel>
  </diagram>
</mxfile>
